<mxfile host="Electron" modified="2023-09-24T08:30:28.630Z" agent="Mozilla/5.0 (Windows NT 10.0; Win64; x64) AppleWebKit/537.36 (KHTML, like Gecko) draw.io/21.5.1 Chrome/112.0.5615.204 Electron/24.6.0 Safari/537.36" etag="9ASkobWNrPFSSiGQlHfV" version="21.5.1" type="device">
  <diagram name="Page-1" id="KaHPsNJCQ69AuFBcm_nf">
    <mxGraphModel dx="1036" dy="573" grid="1" gridSize="10" guides="1" tooltips="1" connect="1" arrows="1" fold="1" page="1" pageScale="1" pageWidth="1169" pageHeight="1654" math="0" shadow="0">
      <root>
        <mxCell id="0" />
        <mxCell id="1" parent="0" />
        <mxCell id="qOkYgcEp5kpqAqROS8gw-1" value="&lt;p style=&quot;margin:0px;margin-top:4px;margin-left:10px;text-align:left;&quot;&gt;&lt;b&gt;std&lt;/b&gt; ProcessM&lt;/p&gt;" style="html=1;shape=mxgraph.sysml.package;labelX=108.8;align=left;spacingLeft=10;overflow=fill;recursiveResize=0;container=0;" vertex="1" parent="1">
          <mxGeometry x="34" y="36" width="892" height="1078" as="geometry" />
        </mxCell>
        <mxCell id="qOkYgcEp5kpqAqROS8gw-2" value="" style="edgeStyle=orthogonalEdgeStyle;rounded=0;orthogonalLoop=1;jettySize=auto;html=1;align=left;" edge="1" parent="1" source="qOkYgcEp5kpqAqROS8gw-3" target="qOkYgcEp5kpqAqROS8gw-8">
          <mxGeometry x="0.0435" y="12" relative="1" as="geometry">
            <mxPoint as="offset" />
          </mxGeometry>
        </mxCell>
        <mxCell id="qOkYgcEp5kpqAqROS8gw-3" value="" style="shape=ellipse;html=1;fillColor=strokeColor;fontSize=18;fontColor=#ffffff;" vertex="1" parent="1">
          <mxGeometry x="191" y="209" width="40" height="40" as="geometry" />
        </mxCell>
        <mxCell id="qOkYgcEp5kpqAqROS8gw-4" style="edgeStyle=orthogonalEdgeStyle;rounded=0;orthogonalLoop=1;jettySize=auto;html=1;" edge="1" parent="1" source="qOkYgcEp5kpqAqROS8gw-8" target="qOkYgcEp5kpqAqROS8gw-19">
          <mxGeometry relative="1" as="geometry">
            <mxPoint x="372" y="394" as="targetPoint" />
          </mxGeometry>
        </mxCell>
        <mxCell id="qOkYgcEp5kpqAqROS8gw-5" value="[else]" style="edgeLabel;html=1;align=center;verticalAlign=middle;resizable=0;points=[];" vertex="1" connectable="0" parent="qOkYgcEp5kpqAqROS8gw-4">
          <mxGeometry x="-0.2743" y="-2" relative="1" as="geometry">
            <mxPoint x="3" y="-14" as="offset" />
          </mxGeometry>
        </mxCell>
        <mxCell id="qOkYgcEp5kpqAqROS8gw-6" style="edgeStyle=orthogonalEdgeStyle;rounded=0;orthogonalLoop=1;jettySize=auto;html=1;" edge="1" parent="1" source="qOkYgcEp5kpqAqROS8gw-8" target="qOkYgcEp5kpqAqROS8gw-31">
          <mxGeometry relative="1" as="geometry" />
        </mxCell>
        <mxCell id="qOkYgcEp5kpqAqROS8gw-7" value="[gCodeCommand.s != NONE]" style="edgeLabel;html=1;align=center;verticalAlign=middle;resizable=0;points=[];" vertex="1" connectable="0" parent="qOkYgcEp5kpqAqROS8gw-6">
          <mxGeometry x="-0.0909" y="2" relative="1" as="geometry">
            <mxPoint x="-87" y="-32" as="offset" />
          </mxGeometry>
        </mxCell>
        <mxCell id="qOkYgcEp5kpqAqROS8gw-8" value="" style="shape=rhombus;html=1;verticalLabelPosition=bottom;verticalAlignment=top;" vertex="1" parent="1">
          <mxGeometry x="191" y="292" width="40" height="40" as="geometry" />
        </mxCell>
        <mxCell id="qOkYgcEp5kpqAqROS8gw-9" value="" style="shape=note;size=15;align=left;spacingLeft=10;html=1;whiteSpace=wrap;" vertex="1" parent="1">
          <mxGeometry x="181" y="940" width="175" height="147" as="geometry" />
        </mxCell>
        <mxCell id="qOkYgcEp5kpqAqROS8gw-10" value="GCodeCommand" style="swimlane;fontStyle=1;align=center;verticalAlign=top;childLayout=stackLayout;horizontal=1;startSize=32;horizontalStack=0;resizeParent=1;resizeParentMax=0;resizeLast=0;collapsible=1;marginBottom=0;whiteSpace=wrap;html=1;" vertex="1" parent="1">
          <mxGeometry x="203" y="958" width="120" height="100" as="geometry" />
        </mxCell>
        <mxCell id="qOkYgcEp5kpqAqROS8gw-11" value="+command:char&lt;br&gt;+commandNr:int&lt;br&gt;+x,y,z,e,f:float&lt;br&gt;+s:int" style="text;strokeColor=none;fillColor=none;align=left;verticalAlign=top;spacingLeft=4;spacingRight=4;overflow=hidden;rotatable=0;points=[[0,0.5],[1,0.5]];portConstraint=eastwest;whiteSpace=wrap;html=1;spacing=0;" vertex="1" parent="qOkYgcEp5kpqAqROS8gw-10">
          <mxGeometry y="32" width="120" height="68" as="geometry" />
        </mxCell>
        <mxCell id="qOkYgcEp5kpqAqROS8gw-12" value="&lt;p style=&quot;margin:0px;margin-top:4px;text-align:center;&quot;&gt;&lt;b&gt;&amp;lt;&amp;lt;interface&amp;gt;&amp;gt;&lt;/b&gt;&lt;/p&gt;&lt;hr&gt;&lt;p&gt;&lt;/p&gt;&lt;p style=&quot;margin:0px;margin-left:8px;text-align:left;&quot;&gt;&lt;b style=&quot;background-color: initial;&quot;&gt;...&lt;/b&gt;&lt;br&gt;&lt;/p&gt;" style="shape=mxgraph.sysml.simpleState;html=1;overflow=fill;whiteSpace=wrap;align=center;" vertex="1" parent="1">
          <mxGeometry x="163" y="62" width="574" height="76" as="geometry" />
        </mxCell>
        <mxCell id="qOkYgcEp5kpqAqROS8gw-13" style="edgeStyle=orthogonalEdgeStyle;rounded=0;orthogonalLoop=1;jettySize=auto;html=1;" edge="1" parent="1" source="qOkYgcEp5kpqAqROS8gw-14" target="qOkYgcEp5kpqAqROS8gw-12">
          <mxGeometry relative="1" as="geometry" />
        </mxCell>
        <mxCell id="qOkYgcEp5kpqAqROS8gw-14" value="" style="shape=ellipse;html=1;fillColor=strokeColor;fontSize=18;fontColor=#ffffff;" vertex="1" parent="1">
          <mxGeometry x="67" y="80" width="40" height="40" as="geometry" />
        </mxCell>
        <mxCell id="qOkYgcEp5kpqAqROS8gw-15" value="" style="line;strokeWidth=2;html=1;" vertex="1" parent="1">
          <mxGeometry x="34" y="159" width="892" height="10" as="geometry" />
        </mxCell>
        <mxCell id="qOkYgcEp5kpqAqROS8gw-16" value="[gCodeCommand.commandNr == 83] / absExtruding=false" style="edgeStyle=orthogonalEdgeStyle;rounded=0;orthogonalLoop=1;jettySize=auto;html=1;exitX=0.5;exitY=0;exitDx=0;exitDy=0;entryX=0.5;entryY=0;entryDx=0;entryDy=0;" edge="1" parent="1" source="qOkYgcEp5kpqAqROS8gw-19" target="qOkYgcEp5kpqAqROS8gw-21">
          <mxGeometry x="0.0155" y="13" relative="1" as="geometry">
            <Array as="points">
              <mxPoint x="321" y="262" />
              <mxPoint x="689" y="262" />
            </Array>
            <mxPoint as="offset" />
          </mxGeometry>
        </mxCell>
        <mxCell id="qOkYgcEp5kpqAqROS8gw-17" value="[gCodeCommand.commandNr == 82] / absExtruding=true" style="edgeStyle=orthogonalEdgeStyle;rounded=0;orthogonalLoop=1;jettySize=auto;html=1;" edge="1" parent="1" source="qOkYgcEp5kpqAqROS8gw-19" target="qOkYgcEp5kpqAqROS8gw-21">
          <mxGeometry x="-0.0244" y="13" relative="1" as="geometry">
            <mxPoint as="offset" />
          </mxGeometry>
        </mxCell>
        <mxCell id="qOkYgcEp5kpqAqROS8gw-18" value="[else]" style="edgeStyle=orthogonalEdgeStyle;rounded=0;orthogonalLoop=1;jettySize=auto;html=1;" edge="1" parent="1" source="qOkYgcEp5kpqAqROS8gw-19" target="qOkYgcEp5kpqAqROS8gw-27">
          <mxGeometry x="-0.2683" y="-17" relative="1" as="geometry">
            <mxPoint as="offset" />
          </mxGeometry>
        </mxCell>
        <mxCell id="qOkYgcEp5kpqAqROS8gw-19" value="" style="shape=rhombus;html=1;verticalLabelPosition=bottom;verticalAlignment=top;" vertex="1" parent="1">
          <mxGeometry x="301" y="292" width="40" height="40" as="geometry" />
        </mxCell>
        <mxCell id="qOkYgcEp5kpqAqROS8gw-20" style="edgeStyle=orthogonalEdgeStyle;rounded=0;orthogonalLoop=1;jettySize=auto;html=1;" edge="1" parent="1" source="qOkYgcEp5kpqAqROS8gw-21" target="qOkYgcEp5kpqAqROS8gw-22">
          <mxGeometry relative="1" as="geometry" />
        </mxCell>
        <mxCell id="qOkYgcEp5kpqAqROS8gw-21" value="" style="shape=rhombus;html=1;verticalLabelPosition=bottom;verticalAlignment=top;" vertex="1" parent="1">
          <mxGeometry x="669" y="292" width="40" height="40" as="geometry" />
        </mxCell>
        <mxCell id="qOkYgcEp5kpqAqROS8gw-22" value="" style="shape=mxgraph.sysml.actFinal;html=1;verticalLabelPosition=bottom;labelBackgroundColor=#ffffff;verticalAlign=top;" vertex="1" parent="1">
          <mxGeometry x="767" y="292" width="40" height="40" as="geometry" />
        </mxCell>
        <mxCell id="qOkYgcEp5kpqAqROS8gw-23" style="edgeStyle=orthogonalEdgeStyle;rounded=0;orthogonalLoop=1;jettySize=auto;html=1;" edge="1" parent="1" source="qOkYgcEp5kpqAqROS8gw-27" target="qOkYgcEp5kpqAqROS8gw-29">
          <mxGeometry relative="1" as="geometry">
            <mxPoint x="605.0000610351562" y="391" as="targetPoint" />
          </mxGeometry>
        </mxCell>
        <mxCell id="qOkYgcEp5kpqAqROS8gw-24" value="[gCodeCommand.commandNr == 400] / printkopXYControl.stop();&lt;br&gt;heatbedHoogteControl.stop(); extruderControl.setSpeed(0.0)" style="edgeLabel;html=1;align=center;verticalAlign=middle;resizable=0;points=[];" vertex="1" connectable="0" parent="qOkYgcEp5kpqAqROS8gw-23">
          <mxGeometry x="-0.0195" y="1" relative="1" as="geometry">
            <mxPoint y="-21" as="offset" />
          </mxGeometry>
        </mxCell>
        <mxCell id="qOkYgcEp5kpqAqROS8gw-25" style="edgeStyle=orthogonalEdgeStyle;rounded=0;orthogonalLoop=1;jettySize=auto;html=1;entryX=0.5;entryY=1;entryDx=0;entryDy=0;" edge="1" parent="1" source="qOkYgcEp5kpqAqROS8gw-27" target="qOkYgcEp5kpqAqROS8gw-29">
          <mxGeometry relative="1" as="geometry">
            <Array as="points">
              <mxPoint x="321" y="446" />
              <mxPoint x="689" y="446" />
            </Array>
          </mxGeometry>
        </mxCell>
        <mxCell id="qOkYgcEp5kpqAqROS8gw-26" value="[else]" style="edgeLabel;html=1;align=center;verticalAlign=middle;resizable=0;points=[];" vertex="1" connectable="0" parent="qOkYgcEp5kpqAqROS8gw-25">
          <mxGeometry x="-0.1235" y="-1" relative="1" as="geometry">
            <mxPoint x="10" y="-13" as="offset" />
          </mxGeometry>
        </mxCell>
        <mxCell id="qOkYgcEp5kpqAqROS8gw-27" value="" style="shape=rhombus;html=1;verticalLabelPosition=bottom;verticalAlignment=top;" vertex="1" parent="1">
          <mxGeometry x="301" y="371" width="40" height="40" as="geometry" />
        </mxCell>
        <mxCell id="qOkYgcEp5kpqAqROS8gw-28" style="edgeStyle=orthogonalEdgeStyle;rounded=0;orthogonalLoop=1;jettySize=auto;html=1;" edge="1" parent="1" source="qOkYgcEp5kpqAqROS8gw-29" target="qOkYgcEp5kpqAqROS8gw-21">
          <mxGeometry relative="1" as="geometry" />
        </mxCell>
        <mxCell id="qOkYgcEp5kpqAqROS8gw-29" value="" style="shape=rhombus;html=1;verticalLabelPosition=bottom;verticalAlignment=top;" vertex="1" parent="1">
          <mxGeometry x="669" y="371" width="40" height="40" as="geometry" />
        </mxCell>
        <mxCell id="qOkYgcEp5kpqAqROS8gw-30" value="[else]" style="edgeStyle=orthogonalEdgeStyle;rounded=0;orthogonalLoop=1;jettySize=auto;html=1;" edge="1" parent="1" source="qOkYgcEp5kpqAqROS8gw-31" target="qOkYgcEp5kpqAqROS8gw-40">
          <mxGeometry x="-0.0476" y="-22" relative="1" as="geometry">
            <mxPoint x="248" y="573" as="targetPoint" />
            <mxPoint as="offset" />
          </mxGeometry>
        </mxCell>
        <mxCell id="qOkYgcEp5kpqAqROS8gw-31" value="" style="shape=rhombus;html=1;verticalLabelPosition=bottom;verticalAlignment=top;" vertex="1" parent="1">
          <mxGeometry x="191" y="494" width="40" height="40" as="geometry" />
        </mxCell>
        <mxCell id="qOkYgcEp5kpqAqROS8gw-32" value="[gCodeCommand.commandNr == 140] / heatbedTemperatureControl.setTemp(gCodeCommand.s)" style="edgeStyle=orthogonalEdgeStyle;rounded=0;orthogonalLoop=1;jettySize=auto;html=1;" edge="1" parent="1" source="qOkYgcEp5kpqAqROS8gw-31" target="qOkYgcEp5kpqAqROS8gw-34">
          <mxGeometry x="-0.0244" y="13" relative="1" as="geometry">
            <mxPoint x="347" y="514" as="sourcePoint" />
            <mxPoint as="offset" />
          </mxGeometry>
        </mxCell>
        <mxCell id="qOkYgcEp5kpqAqROS8gw-33" style="edgeStyle=orthogonalEdgeStyle;rounded=0;orthogonalLoop=1;jettySize=auto;html=1;" edge="1" parent="1" source="qOkYgcEp5kpqAqROS8gw-34" target="qOkYgcEp5kpqAqROS8gw-35">
          <mxGeometry relative="1" as="geometry" />
        </mxCell>
        <mxCell id="qOkYgcEp5kpqAqROS8gw-34" value="" style="shape=rhombus;html=1;verticalLabelPosition=bottom;verticalAlignment=top;" vertex="1" parent="1">
          <mxGeometry x="753" y="494" width="40" height="40" as="geometry" />
        </mxCell>
        <mxCell id="qOkYgcEp5kpqAqROS8gw-35" value="" style="shape=mxgraph.sysml.actFinal;html=1;verticalLabelPosition=bottom;labelBackgroundColor=#ffffff;verticalAlign=top;" vertex="1" parent="1">
          <mxGeometry x="834" y="494" width="40" height="40" as="geometry" />
        </mxCell>
        <mxCell id="qOkYgcEp5kpqAqROS8gw-36" style="edgeStyle=orthogonalEdgeStyle;rounded=0;orthogonalLoop=1;jettySize=auto;html=1;" edge="1" parent="1" source="qOkYgcEp5kpqAqROS8gw-40">
          <mxGeometry relative="1" as="geometry">
            <mxPoint x="412" y="596.5" as="targetPoint" />
          </mxGeometry>
        </mxCell>
        <mxCell id="qOkYgcEp5kpqAqROS8gw-37" value="[gCodeCommand.commandNr &lt;br&gt;&amp;nbsp; &amp;nbsp; &amp;nbsp; &amp;nbsp; &amp;nbsp; &amp;nbsp; &amp;nbsp; &amp;nbsp; &amp;nbsp; &amp;nbsp; &amp;nbsp; &amp;nbsp; &amp;nbsp; &amp;nbsp; &amp;nbsp; &amp;nbsp; &amp;nbsp; &amp;nbsp; &amp;nbsp; &amp;nbsp;== 190]&amp;nbsp;" style="edgeLabel;html=1;align=center;verticalAlign=middle;resizable=0;points=[];" vertex="1" connectable="0" parent="qOkYgcEp5kpqAqROS8gw-36">
          <mxGeometry x="0.3614" y="2" relative="1" as="geometry">
            <mxPoint x="-38" y="22" as="offset" />
          </mxGeometry>
        </mxCell>
        <mxCell id="qOkYgcEp5kpqAqROS8gw-38" style="edgeStyle=orthogonalEdgeStyle;rounded=0;orthogonalLoop=1;jettySize=auto;html=1;" edge="1" parent="1" source="qOkYgcEp5kpqAqROS8gw-40" target="qOkYgcEp5kpqAqROS8gw-44">
          <mxGeometry relative="1" as="geometry" />
        </mxCell>
        <mxCell id="qOkYgcEp5kpqAqROS8gw-39" value="[else]" style="edgeLabel;html=1;align=center;verticalAlign=middle;resizable=0;points=[];" vertex="1" connectable="0" parent="qOkYgcEp5kpqAqROS8gw-38">
          <mxGeometry x="-0.2444" y="1" relative="1" as="geometry">
            <mxPoint x="-21" y="1" as="offset" />
          </mxGeometry>
        </mxCell>
        <mxCell id="qOkYgcEp5kpqAqROS8gw-40" value="" style="shape=rhombus;html=1;verticalLabelPosition=bottom;verticalAlignment=top;" vertex="1" parent="1">
          <mxGeometry x="191" y="576" width="40" height="40" as="geometry" />
        </mxCell>
        <mxCell id="qOkYgcEp5kpqAqROS8gw-41" style="edgeStyle=orthogonalEdgeStyle;rounded=0;orthogonalLoop=1;jettySize=auto;html=1;" edge="1" parent="1" source="qOkYgcEp5kpqAqROS8gw-42" target="qOkYgcEp5kpqAqROS8gw-34">
          <mxGeometry relative="1" as="geometry" />
        </mxCell>
        <mxCell id="qOkYgcEp5kpqAqROS8gw-42" value="" style="shape=rhombus;html=1;verticalLabelPosition=bottom;verticalAlignment=top;" vertex="1" parent="1">
          <mxGeometry x="753" y="576.5" width="40" height="40" as="geometry" />
        </mxCell>
        <mxCell id="qOkYgcEp5kpqAqROS8gw-43" value="[else]" style="edgeStyle=orthogonalEdgeStyle;rounded=0;orthogonalLoop=1;jettySize=auto;html=1;" edge="1" parent="1" source="qOkYgcEp5kpqAqROS8gw-44" target="qOkYgcEp5kpqAqROS8gw-51">
          <mxGeometry x="-0.0476" y="-22" relative="1" as="geometry">
            <mxPoint x="248" y="785" as="targetPoint" />
            <mxPoint as="offset" />
          </mxGeometry>
        </mxCell>
        <mxCell id="qOkYgcEp5kpqAqROS8gw-44" value="" style="shape=rhombus;html=1;verticalLabelPosition=bottom;verticalAlignment=top;" vertex="1" parent="1">
          <mxGeometry x="191" y="706" width="40" height="40" as="geometry" />
        </mxCell>
        <mxCell id="qOkYgcEp5kpqAqROS8gw-45" value="[gCodeCommand.commandNr == 104] / printkopTemperatureControl.setTemp(gCodeCommand.s)" style="edgeStyle=orthogonalEdgeStyle;rounded=0;orthogonalLoop=1;jettySize=auto;html=1;" edge="1" parent="1" source="qOkYgcEp5kpqAqROS8gw-44" target="qOkYgcEp5kpqAqROS8gw-47">
          <mxGeometry x="-0.0244" y="13" relative="1" as="geometry">
            <mxPoint x="347" y="726" as="sourcePoint" />
            <mxPoint as="offset" />
          </mxGeometry>
        </mxCell>
        <mxCell id="qOkYgcEp5kpqAqROS8gw-46" style="edgeStyle=orthogonalEdgeStyle;rounded=0;orthogonalLoop=1;jettySize=auto;html=1;" edge="1" parent="1" source="qOkYgcEp5kpqAqROS8gw-47" target="qOkYgcEp5kpqAqROS8gw-42">
          <mxGeometry relative="1" as="geometry" />
        </mxCell>
        <mxCell id="qOkYgcEp5kpqAqROS8gw-47" value="" style="shape=rhombus;html=1;verticalLabelPosition=bottom;verticalAlignment=top;" vertex="1" parent="1">
          <mxGeometry x="753" y="706" width="40" height="40" as="geometry" />
        </mxCell>
        <mxCell id="qOkYgcEp5kpqAqROS8gw-48" style="edgeStyle=orthogonalEdgeStyle;rounded=0;orthogonalLoop=1;jettySize=auto;html=1;" edge="1" parent="1" source="qOkYgcEp5kpqAqROS8gw-51">
          <mxGeometry relative="1" as="geometry">
            <mxPoint x="412" y="808.5" as="targetPoint" />
          </mxGeometry>
        </mxCell>
        <mxCell id="qOkYgcEp5kpqAqROS8gw-49" value="[gCodeCommand.commandNr &lt;br&gt;&amp;nbsp; &amp;nbsp; &amp;nbsp; &amp;nbsp; &amp;nbsp; &amp;nbsp; &amp;nbsp; &amp;nbsp; &amp;nbsp; &amp;nbsp; &amp;nbsp; &amp;nbsp; &amp;nbsp; &amp;nbsp; &amp;nbsp; &amp;nbsp; &amp;nbsp; &amp;nbsp; &amp;nbsp; &amp;nbsp;== 109]&amp;nbsp;" style="edgeLabel;html=1;align=center;verticalAlign=middle;resizable=0;points=[];" vertex="1" connectable="0" parent="qOkYgcEp5kpqAqROS8gw-48">
          <mxGeometry x="0.3614" y="2" relative="1" as="geometry">
            <mxPoint x="-38" y="22" as="offset" />
          </mxGeometry>
        </mxCell>
        <mxCell id="qOkYgcEp5kpqAqROS8gw-50" value="[else]" style="edgeStyle=orthogonalEdgeStyle;rounded=0;orthogonalLoop=1;jettySize=auto;html=1;" edge="1" parent="1" source="qOkYgcEp5kpqAqROS8gw-51" target="qOkYgcEp5kpqAqROS8gw-53">
          <mxGeometry x="0.0661" y="15" relative="1" as="geometry">
            <Array as="points">
              <mxPoint x="211" y="914" />
              <mxPoint x="773" y="914" />
            </Array>
            <mxPoint as="offset" />
          </mxGeometry>
        </mxCell>
        <mxCell id="qOkYgcEp5kpqAqROS8gw-51" value="" style="shape=rhombus;html=1;verticalLabelPosition=bottom;verticalAlignment=top;" vertex="1" parent="1">
          <mxGeometry x="191" y="788" width="40" height="40" as="geometry" />
        </mxCell>
        <mxCell id="qOkYgcEp5kpqAqROS8gw-52" style="edgeStyle=orthogonalEdgeStyle;rounded=0;orthogonalLoop=1;jettySize=auto;html=1;" edge="1" parent="1" source="qOkYgcEp5kpqAqROS8gw-53" target="qOkYgcEp5kpqAqROS8gw-47">
          <mxGeometry relative="1" as="geometry" />
        </mxCell>
        <mxCell id="qOkYgcEp5kpqAqROS8gw-53" value="" style="shape=rhombus;html=1;verticalLabelPosition=bottom;verticalAlignment=top;" vertex="1" parent="1">
          <mxGeometry x="753" y="788.5" width="40" height="40" as="geometry" />
        </mxCell>
        <mxCell id="qOkYgcEp5kpqAqROS8gw-54" value="..." style="text;html=1;strokeColor=none;fillColor=none;align=center;verticalAlign=middle;whiteSpace=wrap;rounded=0;fontSize=20;" vertex="1" parent="1">
          <mxGeometry x="571" y="586.5" width="60" height="30" as="geometry" />
        </mxCell>
        <mxCell id="qOkYgcEp5kpqAqROS8gw-55" value="..." style="text;html=1;strokeColor=none;fillColor=none;align=center;verticalAlign=middle;whiteSpace=wrap;rounded=0;fontSize=20;" vertex="1" parent="1">
          <mxGeometry x="567" y="793.5" width="60" height="30" as="geometry" />
        </mxCell>
      </root>
    </mxGraphModel>
  </diagram>
</mxfile>
